<svg width="800" height="500" xmlns="http://www.w3.org/2000/svg">
    <rect width="800" height="500" fill="#f8f9fa"/>
    
    <!-- Geometry Panel -->
    <rect x="10" y="10" width="450" height="480" fill="white" stroke="#dee2e6" stroke-width="2"/>
    
    <!-- Match boundary (red) -->
    <path d="M 81.6567119528583,23.807553650262392 L 81.6567119528583,364.5480626351046 L 358.3432880471417,364.5480626351046 L 358.3432880471417,23.807553650262392 L 81.6567119528583,23.807553650262392 Z" fill="rgba(220, 53, 69, 0.1)" stroke="#dc3545" stroke-width="2"/>
    
    <!-- Input boundary (blue) -->
    <path d="M 20.0,20.0 L 20.0,368.35561628536703 L 420.0,368.35561628536703 L 420.0,20.0 L 20.0,20.0 Z" fill="rgba(13, 110, 253, 0.1)" stroke="#0d6efd" stroke-width="2"/>
    
    <!-- Analysis Panel -->
    <rect x="470" y="10" width="320" height="480" fill="white" stroke="#dee2e6" stroke-width="2"/>
    
    <text x="490" y="40" font-family="Arial" font-size="18" font-weight="bold" fill="#212529">ANALYSIS RESULTS</text>
    
    <text x="490" y="75" font-family="Arial" font-size="14" font-weight="bold" fill="#495057">Best Match: Sample D</text>
    <text x="490" y="95" font-family="Arial" font-size="12" fill="#6c757d">ID: layout-4</text>
    
    <text x="490" y="130" font-family="Arial" font-size="14" font-weight="bold" fill="#198754">Composite Score: 0.755</text>
    
    <text x="490" y="160" font-family="Arial" font-size="12" fill="#495057">Area Score:</text>
    <text x="650" y="160" font-family="Arial" font-size="12" fill="#495057">0.677</text>
    
    <text x="490" y="180" font-family="Arial" font-size="12" fill="#495057">IoU Score:</text>
    <text x="650" y="180" font-family="Arial" font-size="12" fill="#495057">0.676</text>
    
    <text x="490" y="200" font-family="Arial" font-size="12" fill="#495057">Topology Score:</text>
    <text x="650" y="200" font-family="Arial" font-size="12" fill="#495057">0.940</text>
    
    <line x1="490" y1="220" x2="770" y2="220" stroke="#dee2e6" stroke-width="1"/>
    
    <text x="490" y="245" font-family="Arial" font-size="13" font-weight="bold" fill="#495057">Input Boundary Stats:</text>
    <text x="490" y="265" font-family="Arial" font-size="11" fill="#6c757d">Area: 52.0</text>
    <text x="490" y="280" font-family="Arial" font-size="11" fill="#6c757d">Perimeter: 28.91</text>
    <text x="490" y="295" font-family="Arial" font-size="11" fill="#6c757d">Vertices: 4</text>
    <text x="490" y="310" font-family="Arial" font-size="11" fill="#6c757d">Compactness: 0.782</text>
    
    <line x1="490" y1="325" x2="770" y2="325" stroke="#dee2e6" stroke-width="1"/>
    
    <text x="490" y="350" font-family="Arial" font-size="13" font-weight="bold" fill="#495057">Match Boundary Stats:</text>
    <text x="490" y="370" font-family="Arial" font-size="11" fill="#6c757d">Area: 35.19</text>
    <text x="490" y="385" font-family="Arial" font-size="11" fill="#6c757d">Perimeter: 23.86</text>
    <text x="490" y="400" font-family="Arial" font-size="11" fill="#6c757d">Vertices: 4</text>
    <text x="490" y="415" font-family="Arial" font-size="11" fill="#6c757d">Compactness: 0.777</text>
    
    <!-- Legend -->
    <line x1="30" y1="460" x2="60" y2="460" stroke="#0d6efd" stroke-width="2"/>
    <text x="70" y="465" font-family="Arial" font-size="11" fill="#495057">Input Boundary</text>
    
    <line x1="200" y1="460" x2="230" y2="460" stroke="#dc3545" stroke-width="2"/>
    <text x="240" y="465" font-family="Arial" font-size="11" fill="#495057">Match Boundary</text>
</svg>